<svg xmlns="http://www.w3.org/2000/svg" xmlns:xlink="http://www.w3.org/1999/xlink" version="1.1" width="256" height="256" viewBox="0 0 256 256" xml:space="preserve">
<desc>Created with Fabric.js 1.7.22</desc>
<defs>
</defs>
<g transform="translate(128 128) scale(0.97 0.97)" style="">
	<g style="stroke: none; stroke-width: 0; stroke-dasharray: none; stroke-linecap: butt; stroke-linejoin: miter; stroke-miterlimit: 10; fill: none; fill-rule: nonzero; opacity: 1;" transform="translate(-130.05 -130.05000000000004) scale(2.89 2.89)" >
	<path d="M 45 0 C 20.147 0 0 20.147 0 45 c 0 9.144 2.735 17.645 7.42 24.746 L 0 89.474 l 19.536 -7.375 C 26.778 87.079 35.547 90 45 90 c 24.853 0 45 -20.147 45 -45 S 69.853 0 45 0 z M 50.781 57.495 L 38.473 45.932 L 17.4 57.495 l 23.87 -24.989 l 11.562 11.189 L 72.6 33.624 L 50.781 57.495 z" style="stroke: none; stroke-width: 1; stroke-dasharray: none; stroke-linecap: butt; stroke-linejoin: miter; stroke-miterlimit: 10; fill: rgb(0,0,0); fill-rule: nonzero; opacity: 1;" transform=" matrix(1 0 0 1 0 0) " stroke-linecap="round" />
</g>
</g>
</svg>